<svg width="236" height="58" xmlns="http://www.w3.org/2000/svg" class="iconLeft">
 <!---->
 <defs>
  <linearGradient y2="0%" x2="100%" y1="0%" x1="0%" id="e0aa198e-8d95-421b-b187-82cb797a30f9" gradientTransform="rotate(25)">
   <stop stop-color="#333" offset="0%"/>
   <stop stop-color="#FF6C00" offset="100%"/>
  </linearGradient>
 </defs>
 <!---->
 <g>
  <title>background</title>
  <rect fill="none" id="canvas_background" height="60" width="238" y="-1" x="-1"/>
 </g>
 <g>
  <title>Layer 1</title>
  <g transform="matrix(3.04333, 0, 0, 3.04333, 82.5477, 122.2)" fill="#D78448" id="a80eddd7-7a24-4019-ae0a-f844656a65ea">
   <path id="svg_1" d="m-6.0734,-31.99025l0,0q0.09,0.03 0.18,0.06l0,0l0,0q0.09,0.03 0.16,0.05l0,0l0,0q0.9,0.31 1.55,0.63l0,0l0,0q0.65,0.33 1.14,0.93l0,0l0,0q0.5,0.6 0.5,1.51l0,0l0,0q0,1.47 -1.03,2.14l0,0l0,0q-1.03,0.67 -2.54,0.67l0,0l0,0q-1.24,0 -2.16,-0.43l0,0l0,0q-0.92,-0.43 -1.38,-1.36l0,0l1.41,-0.71l0,0q0.26,0.54 0.8,0.85l0,0l0,0q0.55,0.31 1.33,0.31l0,0l0,0q0.88,0 1.41,-0.32l0,0l0,0q0.52,-0.32 0.52,-1.14l0,0l0,0q0,-0.5 -0.28,-0.81l0,0l0,0q-0.28,-0.32 -0.63,-0.47l0,0l0,0q-0.35,-0.16 -1.06,-0.41l0,0l0,0q-0.8,-0.28 -1.41,-0.58l0,0l0,0q-0.62,-0.3 -1.12,-0.92l0,0l0,0q-0.51,-0.61 -0.51,-1.55l0,0l0,0q0,-1.32 0.99,-1.91l0,0l0,0q0.99,-0.58 2.39,-0.58l0,0l0,0q1.06,0 1.88,0.43l0,0l0,0q0.82,0.43 1.25,1.34l0,0l-1.37,0.73l0,0q-0.5,-1.16 -1.76,-1.16l0,0l0,0q-1.73,0 -1.73,1.16l0,0l0,0q0,0.59 0.41,0.95l0,0l0,0q0.41,0.35 1.06,0.59l0,0zm11.6,-2.63l-4.37,0l0,3l3.61,0l0,1.31l-3.61,0l0,2.83l4.37,0l0,1.33l-5.94,0l0,-9.8l5.94,0l0,1.33zm7.44,8.47l-2.99,-4.37l-0.46,0l0,4.37l-1.57,0l0,-9.8l1.57,0l0,4.12l0.44,0l2.78,-4.12l1.76,0l-3.25,4.77l3.49,5.03l-1.77,0zm6.18,0.15l0,0q-1.14,0 -1.93,-0.44l0,0l0,0q-0.79,-0.44 -1.24,-1.54l0,0l0,0q-0.44,-1.11 -0.44,-3.04l0,0l0,0q0,-1.93 0.44,-3.04l0,0l0,0q0.45,-1.11 1.24,-1.54l0,0l0,0q0.79,-0.43 1.93,-0.43l0,0l0,0q1.13,0 1.92,0.43l0,0l0,0q0.78,0.43 1.23,1.54l0,0l0,0q0.45,1.11 0.45,3.04l0,0l0,0q0,1.93 -0.45,3.04l0,0l0,0q-0.45,1.1 -1.23,1.54l0,0l0,0q-0.79,0.44 -1.92,0.44l0,0zm0,-1.34l0,0q0.95,0 1.45,-0.81l0,0l0,0q0.51,-0.8 0.51,-2.87l0,0l0,0q0,-2.07 -0.51,-2.87l0,0l0,0q-0.5,-0.8 -1.45,-0.8l0,0l0,0q-0.97,0 -1.47,0.8l0,0l0,0q-0.51,0.8 -0.51,2.87l0,0l0,0q0,2.07 0.51,2.87l0,0l0,0q0.5,0.81 1.47,0.81l0,0zm8.4,1.34l0,0q-1.14,0 -1.93,-0.44l0,0l0,0q-0.79,-0.44 -1.24,-1.54l0,0l0,0q-0.44,-1.11 -0.44,-3.04l0,0l0,0q0,-1.93 0.44,-3.04l0,0l0,0q0.45,-1.11 1.24,-1.54l0,0l0,0q0.79,-0.43 1.93,-0.43l0,0l0,0q1.13,0 1.92,0.43l0,0l0,0q0.78,0.43 1.23,1.54l0,0l0,0q0.45,1.11 0.45,3.04l0,0l0,0q0,1.93 -0.45,3.04l0,0l0,0q-0.45,1.1 -1.23,1.54l0,0l0,0q-0.79,0.44 -1.92,0.44l0,0zm0,-1.34l0,0q0.95,0 1.45,-0.81l0,0l0,0q0.51,-0.8 0.51,-2.87l0,0l0,0q0,-2.07 -0.51,-2.87l0,0l0,0q-0.5,-0.8 -1.45,-0.8l0,0l0,0q-0.97,0 -1.47,0.8l0,0l0,0q-0.51,0.8 -0.51,2.87l0,0l0,0q0,2.07 0.51,2.87l0,0l0,0q0.5,0.81 1.47,0.81l0,0zm7.71,-0.14l4.36,0l0,1.33l-5.93,0l0,-9.8l1.57,0l0,8.47zm11.06,-8.47l1.78,0l-2.91,6.01l0,3.79l-1.58,0l0,-3.78l-2.93,-6.02l1.78,0l1.92,4.2l0.02,0l1.92,-4.2z"/>
  </g>
  <g transform="matrix(0.508609, 0, 0, 0.508609, 30.1934, 124.57)" fill="url(#e0aa198e-8d95-421b-b187-82cb797a30f9)" id="dbd09def-379d-4baf-a33a-6e53be226984">
   <path id="svg_2" d="m-29.11931,-164.51557l1.747,0a4.825,4.825 0 0 1 4.812,4.813l0,9.645a4.825,4.825 0 0 1 -4.812,4.813l-9.645,0a4.826,4.826 0 0 1 -4.814,-4.813l0,-9.645a4.826,4.826 0 0 1 4.814,-4.813l7.898,0zm21.084,0l1.746,0c2.645,0 4.811,2.165 4.811,4.813l0,9.645a4.826,4.826 0 0 1 -4.811,4.813l-9.648,0a4.825,4.825 0 0 1 -4.811,-4.813l0,-9.645a4.826,4.826 0 0 1 4.811,-4.813l7.902,0zm21.084,0l1.742,0a4.827,4.827 0 0 1 4.814,4.813l0,9.645a4.826,4.826 0 0 1 -4.814,4.813l-9.644,0a4.826,4.826 0 0 1 -4.812,-4.813l0,-9.645a4.828,4.828 0 0 1 4.812,-4.813l7.902,0zm-42.168,-20.753l1.747,0c2.648,0 4.812,2.168 4.812,4.817l0,9.641c0,2.649 -2.164,4.817 -4.812,4.817l-9.645,0c-2.649,0 -4.814,-2.168 -4.814,-4.817l0,-9.641c0,-2.649 2.165,-4.817 4.814,-4.817l7.898,0zm0,-20.916l1.747,0c2.648,0 4.812,2.168 4.812,4.816l0,9.642c0,2.648 -2.164,4.816 -4.812,4.816l-9.645,0c-2.649,0 -4.814,-2.168 -4.814,-4.816l0,-9.642c0,-2.648 2.165,-4.816 4.814,-4.816l7.898,0zm21.084,20.916l1.746,0c2.645,0 4.811,2.165 4.811,4.813l0,9.645c0,2.649 -2.166,4.817 -4.811,4.817l-9.648,0c-2.646,0 -4.811,-2.168 -4.811,-4.817l0,-9.645a4.826,4.826 0 0 1 4.811,-4.813l7.902,0zm0,-28.512l1.746,0c2.645,0 4.811,2.165 4.811,4.813l0,9.645c0,2.649 -2.166,4.817 -4.811,4.817l-9.648,0c-2.646,0 -4.811,-2.168 -4.811,-4.817l0,-9.645a4.826,4.826 0 0 1 4.811,-4.813l7.902,0zm21.084,9.638l1.742,0c2.648,0 4.814,2.168 4.814,4.817l0,9.641c0,2.649 -2.166,4.817 -4.814,4.817l-9.644,0c-2.645,0 -4.812,-2.168 -4.812,-4.817l0,-9.641c0,-2.649 2.168,-4.817 4.812,-4.817l7.902,0zm0,-31.102l1.742,0c2.648,0 4.814,2.168 4.814,4.817l0,9.641c0,2.649 -2.166,4.817 -4.814,4.817l-9.644,0c-2.645,0 -4.812,-2.168 -4.812,-4.817l0,-9.641c-0.001,-2.649 2.167,-4.817 4.812,-4.817l7.902,0z"/>
  </g>
 </g>
</svg>