<svg id="Capa_1" enable-background="new 0 0 512 512" height="512" viewBox="0 0 512 512" width="512" xmlns="http://www.w3.org/2000/svg"><path d="m507.606 245.394-68.703-68.703c-4.29-4.291-10.742-5.572-16.347-3.252-5.605 2.322-9.26 7.791-9.26 13.858v19.896h-108.488v-108.489h19.896c6.067 0 11.536-3.654 13.858-9.26 2.321-5.605 1.038-12.057-3.252-16.347l-68.704-68.703c-2.812-2.814-6.627-4.394-10.606-4.394s-7.794 1.58-10.606 4.394l-68.704 68.704c-4.29 4.29-5.573 10.741-3.252 16.347 2.322 5.605 7.791 9.26 13.858 9.26h19.896v108.489h-108.488v-19.896c0-6.067-3.654-11.536-9.26-13.858-5.603-2.32-12.057-1.039-16.347 3.252l-68.703 68.702c-2.814 2.812-4.394 6.628-4.394 10.606s1.58 7.794 4.394 10.606l68.704 68.704c2.869 2.87 6.706 4.395 10.609 4.394 1.933 0 3.882-.373 5.737-1.142 5.605-2.322 9.26-7.791 9.26-13.858v-19.896h108.489v108.489h-19.896c-6.067 0-11.536 3.654-13.858 9.26-2.321 5.605-1.038 12.057 3.252 16.347l68.703 68.703c2.929 2.93 6.768 4.394 10.606 4.394s7.678-1.465 10.606-4.394l68.704-68.703c4.29-4.29 5.573-10.741 3.252-16.347-2.322-5.605-7.791-9.26-13.858-9.26h-19.896v-108.489h108.489v19.896c0 6.067 3.654 11.536 9.26 13.858 1.856.769 3.805 1.142 5.737 1.142 3.903 0 7.74-1.524 10.609-4.394l68.703-68.704c5.859-5.857 5.859-15.355 0-21.212z"/></svg>