<svg id="Flat" height="512" viewBox="0 0 512 512" width="512" xmlns="http://www.w3.org/2000/svg"><path d="m40 72h448v416h-448z" fill="#c3c6c7"/><path d="m24 56h432v400h-432z" fill="#e9eef2"/><path d="m24 56h432v96h-432z" fill="#eb423f"/><g fill="#6a7073"><path d="m112 56v-8a8 8 0 0 0 -16 0v32a8.009 8.009 0 0 0 8 8 8 8 0 0 1 0 16 24.028 24.028 0 0 1 -24-24v-32a24 24 0 0 1 48 0v8z"/><path d="m176 56v-8a8 8 0 0 0 -16 0v32a8.009 8.009 0 0 0 8 8 8 8 0 0 1 0 16 24.028 24.028 0 0 1 -24-24v-32a24 24 0 0 1 48 0v8z"/><path d="m320 56v-8a8 8 0 0 0 -16 0v32a8.009 8.009 0 0 0 8 8 8 8 0 0 1 0 16 24.028 24.028 0 0 1 -24-24v-32a24 24 0 0 1 48 0v8z"/><path d="m384 56v-8a8 8 0 0 0 -16 0v32a8.009 8.009 0 0 0 8 8 8 8 0 0 1 0 16 24.028 24.028 0 0 1 -24-24v-32a24 24 0 0 1 48 0v8z"/><path d="m331.657 216.885a8 8 0 0 0 -8.314.61l-64 45.818a8 8 0 1 0 9.314 13.01l51.343-36.757v144.434a8 8 0 0 0 16 0v-160a8 8 0 0 0 -4.343-7.115z"/><path d="m240 264a48 48 0 0 0 -96 0 8 8 0 0 0 16 0 32 32 0 1 1 32 32 8 8 0 0 0 0 16 32 32 0 1 1 -32 32 8 8 0 0 0 -16 0 48 48 0 1 0 74.507-40 47.994 47.994 0 0 0 21.493-40z"/></g></svg>