<svg id="Capa_1" enable-background="new 0 0 512 512" height="512" viewBox="0 0 512 512" width="512" xmlns="http://www.w3.org/2000/svg"><g><path d="m482.16 288.51 29.84-4.68v-55.66l-29.84-4.68c-24.555-4.144-33.186-36.669-13.99-52.45l22.52-18.55-27.71-47.98-27.56 10.32c-23.331 8.741-46.997-14.903-38.25-38.25l10.32-27.56-47.98-27.71-18.55 22.52c-15.752 19.16-48.298 10.612-52.45-13.99l-4.68-29.84h-55.66l-4.68 29.84c-4.166 24.557-36.666 33.189-52.45 13.99l-18.55-22.52-47.98 27.71 10.32 27.56c8.739 23.327-14.903 46.997-38.25 38.25l-27.56-10.32-27.71 47.98 22.52 18.55c8.77 7.22 12.5 19.07 9.51 30.21-.06.1-3.9 18.93-23.5 22.24l-29.84 4.68v55.66l29.84 4.68c11.2 1.9 20.34 10.3 23.28 21.43 0 .1 6.06 18.39-9.29 31.02l-22.52 18.55 27.71 47.98 27.56-10.32c23.216-8.698 47.038 14.811 38.25 38.25l-10.32 27.56 47.98 27.71 18.55-22.52c15.735-19.113 48.274-10.674 52.45 13.99l4.68 29.84h55.66l4.68-29.84c4.118-24.404 36.562-33.3 52.45-13.99l18.55 22.52 47.98-27.71-10.32-27.56c-8.698-23.216 14.811-47.038 38.25-38.25l27.56 10.32 27.71-47.98-22.52-18.55c-19.164-15.755-10.612-48.277 13.99-52.45zm-226.16 102.49c-74.44 0-135-60.56-135-135s60.56-135 135-135 135 60.56 135 135-60.56 135-135 135zm0-240c-57.9 0-105 47.1-105 105s47.1 105 105 105 105-47.1 105-105-47.1-105-105-105zm0 180c-41.35 0-75-33.64-75-75s33.65-75 75-75 75 33.64 75 75-33.65 75-75 75z"/></g></svg>