<svg id="Capa_1" enable-background="new 0 0 512 512" height="512" viewBox="0 0 512 512" width="512" xmlns="http://www.w3.org/2000/svg"><g><path d="m512 369.306v-226.613l-148.061 113.305z"/><path d="m0 142.682v226.636l148.058-113.319z"/><path d="m14.006 115.622s218.454 167.197 220.384 168.674c6.255 4.775 13.732 7.305 21.609 7.305 7.878 0 15.346-2.527 21.597-7.308 0 0 218.396-167.126 220.411-168.669 4.683-3.587 8.302-8.152 10.69-13.297h-505.392c2.39 5.145 6.013 9.709 10.701 13.295z"/><path d="m498.003 396.372-158.746-121.486s-42.662 32.646-43.456 33.209c-11.508 8.846-25.278 13.506-39.801 13.506-14.512 0-28.284-4.658-39.828-13.47l-43.435-33.243c-79.201 60.614-158.731 121.49-158.731 121.49-4.688 3.586-8.311 8.151-10.702 13.295h505.393c-2.388-5.146-6.009-9.713-10.694-13.301z"/></g></svg>